<svg id="Capa_1" data-name="Capa 1" xmlns="http://www.w3.org/2000/svg" viewBox="0 0 56.92 56.96">
  <defs>
    <style>
      .cls-1 {
        fill: none;
        stroke: #000;
        stroke-miterlimit: 10;
        stroke-width: 2px;
      }
    </style>
  </defs>
  <title>CruzCirT2</title>
  <g>
    <path class="cls-1" d="M615.25,371.14" transform="translate(-591.2 -369.79)"/>
    <path class="cls-1" d="M602.75,376.59a27.5,27.5,0,0,1,4.25-2.73" transform="translate(-591.2 -369.79)"/>
    <path class="cls-1" d="M598.38,380.86a27.64,27.64,0,0,1,4.37-4.27" transform="translate(-591.2 -369.79)"/>
    <path class="cls-1" d="M598.38,380.86" transform="translate(-591.2 -369.79)"/>
    <path class="cls-1" d="M592.2,396.88A27.33,27.33,0,0,1,595,386.05" transform="translate(-591.2 -369.79)"/>
    <path class="cls-1" d="M601.19,418.62a27.42,27.42,0,0,1-8.81-16.93" transform="translate(-591.2 -369.79)"/>
    <path class="cls-1" d="M601.19,418.62" transform="translate(-591.2 -369.79)"/>
    <path class="cls-1" d="M626.61,424.85a27.56,27.56,0,0,1-21.74-3.41" transform="translate(-591.2 -369.79)"/>
    <path class="cls-1" d="M626.61,424.85" transform="translate(-591.2 -369.79)"/>
    <path class="cls-1" d="M615.25,371.14a27.48,27.48,0,0,1,15.32,52.35" transform="translate(-591.2 -369.79)"/>
    <line class="cls-1" x1="27.44" y1="16.27" x2="27.44" y2="40.58"/>
    <line class="cls-1" x1="39.93" y1="28.48" x2="14.64" y2="28.48"/>
  </g>
</svg>
